{
  "accessors": [
    {
      "bufferView": 2,
      "componentType": 5126,
      "count": 482,
      "max": [
        -2.8206338882446289,
        1.0160590410232544,
        15.120930671691895
      ],
      "min": [
        -8.4627552032470703,
        -1.0128300189971924,
        8.544337272644043
      ],
      "type": "VEC3"
    },
    {
      "bufferView": 2,
      "byteOffset": 5784,
      "componentType": 5126,
      "count": 482,
      "max": [
        0.89858269691467285,
        0.9841538667678833,
        0.9202885627746582
      ],
      "min": [
        -0.98778426647186279,
        -0.9841538667678833,
        -0.98579162359237671
      ],
      "type": "VEC3"
    },
    {
      "bufferView": 3,
      "componentType": 5126,
      "count": 482,
      "max": [
        0.99999642372131348,
        0.95084339380264282,
        0.91178685426712036,
        1
      ],
      "min": [
        0.15440164506435394,
        -0.96995753049850464,
        -0.98757028579711914,
        -1
      ],
      "type": "VEC4"
    },
    {
      "bufferView": 1,
      "componentType": 5126,
      "count": 482,
      "max": [
        0.96707797050476074,
        0.96707797050476074
      ],
      "min": [
        0.03292199969291687,
        0.03292199969291687
      ],
      "type": "VEC2"
    },
    {
      "bufferView": 0,
      "componentType": 5125,
      "count": 1200,
      "max": [
        481
      ],
      "min": [
        0
      ],
      "type": "SCALAR"
    },
    {
      "bufferView": 2,
      "byteOffset": 11568,
      "componentType": 5126,
      "count": 266,
      "max": [
        -3.306102991104126,
        0.60618299245834351,
        9.0117874145507812
      ],
      "min": [
        -7.7834382057189941,
        -0.72932100296020508,
        3.902134895324707
      ],
      "type": "VEC3"
    },
    {
      "bufferView": 2,
      "byteOffset": 14760,
      "componentType": 5126,
      "count": 266,
      "max": [
        1,
        0.98768514394760132,
        1
      ],
      "min": [
        -1,
        -0.95198333263397217,
        -1
      ],
      "type": "VEC3"
    },
    {
      "bufferView": 3,
      "byteOffset": 7712,
      "componentType": 5126,
      "count": 266,
      "max": [
        0.99989622831344604,
        1,
        0.51298606395721436,
        1
      ],
      "min": [
        -0.84305006265640259,
        -1,
        -0.54288500547409058,
        -1
      ],
      "type": "VEC4"
    },
    {
      "bufferView": 0,
      "byteOffset": 4800,
      "componentType": 5125,
      "count": 564,
      "max": [
        265
      ],
      "min": [
        0
      ],
      "type": "SCALAR"
    }
  ],
  "asset": {
    "extras": {
      "author": "RSanmartin (https://sketchfab.com/r.sanmartin)",
      "license": "CC-BY-4.0 (http://creativecommons.org/licenses/by/4.0/)",
      "source": "https://sketchfab.com/models/181cb8eefacb4fd0b77c6c28209b82a5",
      "title": "Flamingo AESTHETICS"
    },
    "generator": "Sketchfab-3.20.4",
    "version": "2.0"
  },
  "bufferViews": [
    {
      "buffer": 0,
      "byteLength": 7056,
      "byteOffset": 0,
      "name": "floatBufferViews",
      "target": 34963
    },
    {
      "buffer": 0,
      "byteLength": 3856,
      "byteOffset": 7056,
      "byteStride": 8,
      "name": "floatBufferViews",
      "target": 34962
    },
    {
      "buffer": 0,
      "byteLength": 17952,
      "byteOffset": 10912,
      "byteStride": 12,
      "name": "floatBufferViews",
      "target": 34962
    },
    {
      "buffer": 0,
      "byteLength": 11968,
      "byteOffset": 28864,
      "byteStride": 16,
      "name": "floatBufferViews",
      "target": 34962
    }
  ],
  "buffers": [
    {
      "byteLength": 40832,
      "uri": "scene.bin"
    }
  ],
  "images": [
    {
      "uri": "textures/blinn1SG_baseColor.png"
    }
  ],
  "materials": [
    {
      "doubleSided": true,
      "emissiveFactor": [
        0,
        0,
        0
      ],
      "name": "blinn1SG",
      "pbrMetallicRoughness": {
        "baseColorFactor": [
          1,
          1,
          1,
          1
        ],
        "baseColorTexture": {
          "index": 0,
          "texCoord": 0
        },
        "metallicFactor": 0,
        "roughnessFactor": 0.59999999999999998
      }
    },
    {
      "doubleSided": true,
      "emissiveFactor": [
        0,
        0,
        0
      ],
      "name": "initialShadingGroup",
      "pbrMetallicRoughness": {
        "baseColorFactor": [
          0.1028690976,
          0.014801874099999999,
          0.0035366220000000001,
          1
        ],
        "metallicFactor": 0,
        "roughnessFactor": 0.59999999999999998
      }
    }
  ],
  "meshes": [
    {
      "primitives": [
        {
          "attributes": {
            "NORMAL": 1,
            "POSITION": 0,
            "TANGENT": 2,
            "TEXCOORD_0": 3
          },
          "indices": 4,
          "material": 0,
          "mode": 4
        }
      ]
    },
    {
      "primitives": [
        {
          "attributes": {
            "NORMAL": 6,
            "POSITION": 5,
            "TANGENT": 7
          },
          "indices": 8,
          "material": 1,
          "mode": 4
        }
      ]
    }
  ],
  "nodes": [
    {
      "children": [
        1
      ],
      "name": "RootNode (gltf orientation matrix)",
      "rotation": [
        -0.70710678118654746,
        -0,
        -0,
        0.70710678118654757
      ]
    },
    {
      "children": [
        2
      ],
      "name": "RootNode (model correction matrix)"
    },
    {
      "children": [
        3,
        4
      ],
      "name": "52fe06777d1a4fffafa0774bd892c9df.obj.cleaner.materialmerger.gles"
    },
    {
      "mesh": 0,
      "name": ""
    },
    {
      "mesh": 1,
      "name": ""
    }
  ],
  "samplers": [
    {
      "magFilter": 9729,
      "minFilter": 9987,
      "wrapS": 10497,
      "wrapT": 10497
    }
  ],
  "scene": 0,
  "scenes": [
    {
      "name": "OSG_Scene",
      "nodes": [
        0
      ]
    }
  ],
  "textures": [
    {
      "sampler": 0,
      "source": 0
    }
  ]
}

